<svg version="1.1" xmlns="http://www.w3.org/2000/svg" xmlns:xlink="http://www.w3.org/1999/xlink" width="1792" height="1063" viewBox="-992 -32 1792 1063" id="ccdiagram"><filter id="grayscale"><feColorMatrix type="matrix" values="0.3333 0.3333 0.3333 0 0 0.3333 0.3333 0.3333 0 0 0.3333 0.3333 0.3333 0 0 0 0 0 1 0"></feColorMatrix></filter><defs><style type="text/css">@import url('https://fonts.googleapis.com/css?family=Open+Sans:400,700|Inconsolata:400');</style></defs><g><g pointer-events="auto"></g><g pointer-events="auto"></g><g></g><g pointer-events="auto"></g><g></g><g pointer-events="auto"></g><g pointer-events="none"></g><g pointer-events="auto"><g><g cursor="cell"><line x1="-524" y1="784" x2="-426" y2="727" stroke="red" stroke-width="8" opacity="0"></line><line x1="-524" y1="784" x2="-426" y2="727" stroke="#000000" stroke-width="2" stroke-linecap="round"></line><polygon points="-416 722, -442 727, -428 729, -425 736, -416 722" stroke-linejoin="round" fill="#000000" stroke="#000000" stroke-width="1"></polygon></g></g><g><g cursor="cell"><line x1="-360" y1="689" x2="-403" y2="519" stroke="red" stroke-width="8" opacity="0"></line><line x1="-360" y1="689" x2="-403" y2="519" stroke="#000000" stroke-width="2" stroke-linecap="round"></line><polygon points="-405 512, -413 527, -403 522, -390 525, -405 512" stroke-linejoin="round" fill="#000000" stroke="#000000" stroke-width="1"></polygon></g></g><g><g cursor="cell"><line x1="-360" y1="689" x2="-207" y2="686" stroke="red" stroke-width="8" opacity="0"></line><line x1="-360" y1="689" x2="-207" y2="686" stroke="#000000" stroke-width="2" stroke-linecap="round"></line><polygon points="-193 685, -218 679, -211 686, -217 692, -193 685" stroke-linejoin="round" fill="#000000" stroke="#000000" stroke-width="1"></polygon></g></g><g><g cursor="cell"><line x1="-128" y1="648" x2="-42" y2="598" stroke="red" stroke-width="8" opacity="0"></line><line x1="-128" y1="648" x2="-42" y2="598" stroke="#000000" stroke-width="2" stroke-linecap="round"></line><polygon points="-32 592, -58 597, -44 599, -41 607, -32 592" stroke-linejoin="round" fill="#000000" stroke="#000000" stroke-width="1"></polygon></g></g><g><g cursor="cell"><line x1="-343" y1="476" x2="-230" y2="411" stroke="red" stroke-width="8" opacity="0"></line><line x1="-343" y1="476" x2="-230" y2="411" stroke="#000000" stroke-width="2" stroke-linecap="round"></line><polygon points="-221 405, -246 411, -233 412, -230 420, -221 405" stroke-linejoin="round" fill="#000000" stroke="#000000" stroke-width="1"></polygon></g></g><g><g cursor="cell"><line x1="48" y1="546" x2="102" y2="514" stroke="red" stroke-width="8" opacity="0"></line><line x1="48" y1="546" x2="102" y2="514" stroke="#000000" stroke-width="2" stroke-linecap="round"></line><polygon points="112 509, 86 514, 100 516, 103 524, 112 509" stroke-linejoin="round" fill="#000000" stroke="#000000" stroke-width="1"></polygon></g></g></g><g pointer-events="auto"><g opacity="1"><g id="3e044b87-439f-4147-93fb-c474813cf11b" transform="translate(0 0)"><g><polygon points="144 416, 208 453, 144 490, 80 453" fill="#ececed"></polygon><polygon points="80 490, 144 527, 144 490, 80 453" fill="#d2d2d4" stroke="#83838a"></polygon><polygon points="144 527, 208 490, 208 453, 144 490" fill="#b8b8bb" stroke="#83838a"></polygon><polygon points="144 416, 80 453, 80 490, 144 527, 208 490, 208 453" fill="none" stroke="#000000" stroke-width="2"></polygon></g></g></g><g opacity="1"><g id="e67aee3c-7858-4bb7-a97d-335e5fae6f32" transform="translate(0 0)"><svg x="-259" y="296" height="115.695" width="100.625" viewBox="0 0 26.624 30.611"><g fill-rule="evenodd"><path d="M13.312.306v15l12.99-7.5z" fill="#4286c5" stroke-width=".265"></path><path d="M.322 7.806l12.99 7.5v-15z" fill="#26527b" stroke-width=".265"></path><path d="M13.312.306v15" fill="none" stroke="#b7d1e9" stroke-width=".265"></path><path d="M13.312 15.306l12.99-7.5-6.495 18.75-6.495 3.75z" fill="#26527b" stroke-width=".265"></path><path d="M.322 7.806l12.99 7.5v15l-6.495-3.75z" fill="#326ca2" stroke-width=".265"></path><path d="M.322 7.806l12.99 7.5 12.99-7.5-12.99 7.5v15" fill="none" stroke="#deeaf5" stroke-width=".265"></path><path d="M13.312.306l-12.99 7.5 6.495 18.75 6.495 3.75 6.495-3.75 6.495-18.75z" fill="none" stroke="#000000" stroke-width=".529"></path></g></svg></g></g><g opacity="1"><g id="f18f4a50-995d-4c6a-8dab-7c2d77148dde" transform="translate(0 0)"><svg x="-48" y="488" height="113.438" width="96" viewBox="0 0 25.4 30.014"><g transform="translate(412.599 -86.957)"><g fill-rule="evenodd"><path d="M-412.333 102.348v4.786l8.29 4.785h8.289l8.29-4.785v-4.786l-8.29-4.786h-8.29z" fill="#3c3c3c"></path><path d="M-395.754 111.92l8.29-4.786v4.785l-8.29 4.786z" fill="#090909"></path><path d="M-404.044 111.92h8.29v4.785h-8.29z" fill="#232323"></path><path d="M-412.333 107.134v4.785l8.29 4.786v-4.786z" fill="#232323"></path><path d="M-412.333 107.134l8.29 4.785h8.289l8.29-4.785M-404.044 111.92v4.785M-395.754 111.92v4.785" fill="none" stroke="#a2a2a2" stroke-width=".26588"></path><path d="M-412.333 102.348v9.571l8.29 4.786h8.289l8.29-4.786v-9.571l-8.29-4.786h-8.29z" fill="none" stroke="#000000" stroke-width=".53176"></path></g><path d="M-412.333 97.178v4.786l8.29 4.786h8.289l8.29-4.786v-4.786l-8.29-4.786h-8.29z" fill="#3c3c3c" fill-rule="evenodd" stroke-width=".332"></path><path d="M-395.754 106.75l8.29-4.786v4.786l-8.29 4.786z" fill="#090909" fill-rule="evenodd" stroke-width=".332"></path><path d="M-404.044 106.75h8.29v4.786h-8.29z" fill="#232323" fill-rule="evenodd" stroke-width=".332"></path><path d="M-412.333 101.964v4.786l8.29 4.786v-4.786z" fill="#232323" fill-rule="evenodd" stroke-width=".332"></path><path d="M-412.333 101.964l8.29 4.786h8.289l8.29-4.786M-404.044 106.75v4.786M-395.754 106.75v4.786" fill="none" fill-rule="evenodd" stroke="#a2a2a2" stroke-width=".266"></path><path d="M-412.333 97.178v9.572l8.29 4.786h8.289l8.29-4.786v-9.572l-8.29-4.786h-8.29z" fill="none" fill-rule="evenodd" stroke="#000000" stroke-width=".532"></path><path d="M-412.333 92.01v4.785l8.29 4.786h8.289l8.29-4.786v-4.786l-8.29-4.786h-8.29z" fill="#3c3c3c" fill-rule="evenodd" stroke-width=".332"></path><path d="M-395.754 101.58l8.29-4.785v4.786l-8.29 4.786z" fill="#090909" fill-rule="evenodd" stroke-width=".332"></path><path d="M-404.044 101.58h8.29v4.787h-8.29z" fill="#232323" fill-rule="evenodd" stroke-width=".332"></path><path d="M-412.333 96.795v4.786l8.29 4.786v-4.786z" fill="#232323" fill-rule="evenodd" stroke-width=".332"></path><path d="M-412.333 96.795l8.29 4.786h8.289l8.29-4.786M-404.044 101.58v4.787M-395.754 101.58v4.787" fill="none" fill-rule="evenodd" stroke="#a2a2a2" stroke-width=".266"></path><path d="M-412.333 92.01v9.57l8.29 4.787h8.289l8.29-4.786v-9.572l-8.29-4.786h-8.29z" fill="none" fill-rule="evenodd" stroke="#000000" stroke-width=".532"></path><circle cx="-136.478" cy="325.284" fill="#f4b934" r="5.801" stroke-width=".286" transform="scale(1.22475 .7071) rotate(45)"></circle><g style="line-height: 0%;"><path d="M-399.242 93.57l.48-.601q.222-.275.177-.448-.04-.17-.467-.416l-.507-.293 1.065-.614.937.541q.825.476.92.934.1.46-.417 1.114l-3.452 4.39-1.622-.937 1.654-2.121-3.729.923-1.622-.936z" fill="#ffffff" font-family="Droid Serif" font-size="9.971" stroke-width=".266" style="line-height: 1.25;"></path></g></g></svg></g></g><g opacity="1"><g id="41d61a97-88e4-47aa-96a7-2a1d39d7b5a1" transform="translate(0 0)"><svg x="-432" y="380" height="148.142" width="93" viewBox="0 0 24.606 39.196"><g transform="translate(-90.671 -137.288)"><path d="M91.985 141.821l14.632 8.448 7.316-4.224-14.632-8.447z" fill="#ececed" fill-rule="evenodd" stroke-width=".268"></path><path d="M91.985 165.958l-1.045 1.81v-1.207z" fill="#d2d2d4" fill-rule="evenodd" stroke-width=".268"></path><path d="M91.985 165.958l14.632 8.447-1.046 1.81-14.566-8.56zM106.617 174.405l-1.046 1.81h2.09z" fill="#d2d2d4" fill-rule="evenodd" stroke-width=".268"></path><path d="M91.985 141.821v24.137l14.632 8.447V150.27z" fill="#d2d2d4" fill-rule="evenodd" stroke-width=".268"></path><path d="M106.617 174.405l1.045 1.81 7.316-4.223v-1.207l-1.045-.603z" fill="#b8b8bb" fill-rule="evenodd" stroke-width=".268"></path><path d="M106.617 150.27l7.316-4.225v24.137l-7.316 4.223z" fill="#b8b8bb" fill-rule="evenodd" stroke-width=".268"></path><g fill="none" fill-rule="evenodd" stroke="#83838a"><path d="M113.933 170.182l-7.316 4.223-14.632-8.447-1.045 1.81M91.985 141.821l14.632 8.448 7.316-4.224M106.617 150.27v24.135M105.571 176.216l1.046-1.81 1.045 1.81M113.933 170.182l1.045 1.81" stroke-width=".26818"></path></g><path d="M90.94 167.768v-1.207l1.045-.603V141.82l7.316-4.223 14.632 8.447v24.137l1.045.603v1.207l-7.316 4.224h-2.09z" fill="none" fill-rule="evenodd" stroke="#000000" stroke-width=".529"></path><ellipse cx="141.009" cy="74.394" fill="#4286c5" rx="6.047" ry="4.714" stroke-width=".278" transform="matrix(.19572 .98066 .96381 .26658 0 0)"></ellipse><ellipse cx="141.009" cy="74.394" fill="#ffffff" rx="5.037" ry="3.927" stroke-width=".278" transform="matrix(.19572 .98066 .96381 .26658 0 0)"></ellipse><path d="M99.03 153.239c-3.067 2.89-1.034 7.41.27 9.702" fill="none" fill-rule="evenodd" stroke="#4286c5" stroke-width=".51973284"></path><g transform="translate(374.17 163.896) scale(.26818)"><ellipse cx="272.14" cy="-1124.64" fill="#4286c5" rx="3.335" ry="2.648" transform="matrix(.19572 .98066 .96381 .26658 0 0)"></ellipse><ellipse cx="290.38" cy="-1128.297" fill="#4286c5" rx="3.687" ry="2.835" transform="matrix(.19572 .98066 .96381 .26658 0 0)"></ellipse><ellipse cx="290.282" cy="-1113.221" fill="#4286c5" rx="3.51" ry="2.717" transform="matrix(.19572 .98066 .96381 .26658 0 0)"></ellipse><path d="M-1033.087-41.48c4.26 21.344 17.38 30.943 23.61 33.65M-1039.896-25.075c12.675 15.122 22.864 16.4 30.106 8.948" fill="none" fill-rule="evenodd" stroke="#4286c5" stroke-width="1.938"></path></g></g></svg></g></g><g opacity="1"><g id="ab1ff4e1-e4bd-4292-bf84-ac3b8e866afa" transform="translate(0 0)"><svg x="-238" y="603" height="108.05" width="123" viewBox="0 0 32.544 28.588"><path d="M10.115 6.02v14.218l7.873-4.318V1.474z" fill="#090909" fill-rule="evenodd" stroke="#a2a2a2" stroke-width=".268"></path><path d="M.265 2.228l9.85 3.791v14.219l-9.85-8.531z" fill="#232323" fill-rule="evenodd" stroke="#a2a2a2" stroke-width=".265"></path><path d="M10.115 6.02l7.873-4.546L3.548.332.265 2.228z" fill="#3c3c3c" fill-rule="evenodd" stroke="#a2a2a2" stroke-width=".265"></path><path d="M.265 11.707l9.85 8.53 7.873-4.317V1.474L3.392.271.265 2.076z" fill="none" fill-rule="evenodd" stroke="#000000" stroke-width=".529"></path><path d="M22.429 3.65L14.22 8.39l14.828 10.397 3.231-1.866z" fill="#3c3c3c" fill-rule="evenodd" stroke="#a2a2a2" stroke-width=".268"></path><path d="M14.22 8.39V22.61l14.777 5.687.051-9.509z" fill="#232323" fill-rule="evenodd" stroke="#a2a2a2" stroke-width=".265"></path><path d="M29.048 18.787l3.231-1.866V26.4l-3.282 1.897z" fill="#090909" fill-rule="evenodd" stroke="#a2a2a2" stroke-width=".265"></path><path d="M22.429 3.65L14.22 8.39V22.61l14.777 5.687 3.282-1.897v-9.478z" fill="none" fill-rule="evenodd" stroke="#000000" stroke-width=".529"></path><path d="M21.09 20.43q.163.375.048.64t-.44.265q-.326 0-.671-.265-.346-.265-.509-.64-.162-.374-.047-.639t.44-.265q.326 0 .671.265.346.265.509.64zm1.573-1.808q.08.184.022.318-.059.134-.218.134-.16 0-.335-.134-.176-.135-.255-.318-.082-.187-.024-.32.058-.132.22-.132.163 0 .336.132.173.133.254.32zm1.573 3.617q.08.184.021.318-.058.134-.218.134t-.335-.134q-.175-.135-.255-.318-.081-.187-.023-.32.057-.132.22-.132t.335.132q.173.133.255.32zm-1.826-1.487l-.284-.654q-.016-.035-.052-.068-.036-.034-.065-.038l-.513-.084q-.088-.124-.215-.269.03-.17.1-.406.006-.035-.01-.07-.018-.043-.05-.068-.117-.106-.39-.316-.275-.21-.333-.21-.034 0-.054.025l-.215.317q-.143-.067-.284-.11-.2-.38-.309-.547-.058-.085-.129-.085h-.571q-.034 0-.05.027-.016.026-.004.062l.164.54q-.089.036-.182.11l-.5-.315q-.032-.024-.071-.024-.034 0-.053.028-.238.47-.196.565.014.032.05.067.053.05.208.187.155.138.238.216-.003.155.018.29l-.43.084q-.029.004-.038.034-.008.03.008.069l.285.653q.015.036.051.069.036.033.065.037l.513.085q.088.124.215.268-.03.17-.1.407-.005.038.01.07.018.043.052.07.113.107.388.315.275.208.333.209.034 0 .054-.025l.215-.318q.132.064.286.113.2.382.307.544.058.085.129.085h.571q.034 0 .05-.027.016-.026.004-.062l-.164-.54q.089-.035.183-.11l.499.315q.035.024.072.024.033 0 .052-.028.238-.47.196-.565-.014-.032-.05-.067-.062-.057-.212-.19-.15-.135-.23-.213-.004-.169-.022-.29l.431-.08q.028-.007.036-.038.008-.03-.008-.068zm1.147-1.883l-.215-.494q-.025-.057-.505-.11-.079-.095-.172-.183-.017-.4-.056-.488-.006-.014-.023-.024-.483-.251-.49-.251-.024 0-.069.166-.044.166-.055.24-.064-.007-.095-.007t-.09.007q-.075-.074-.264-.24-.188-.166-.213-.166-.006 0-.272.25-.008.011-.002.025.039.088.369.488-.017.088-.012.183-.435.053-.41.11l.215.494q.024.057.505.11.084.102.172.184.017.399.055.487.006.014.023.025l.138.07.234.12q.11.057.117.057.024 0 .07-.164.045-.164.056-.239.064.007.095.007.03 0 .089-.007.266.251.455.396l.021.007q.012 0 .273-.247.008-.01.002-.025-.038-.088-.368-.487.017-.082.012-.184.435-.053.41-.11zm1.572 3.617l-.215-.494q-.024-.057-.505-.11-.078-.095-.172-.184-.017-.399-.055-.487-.006-.014-.023-.025-.484-.25-.49-.25-.025 0-.069.165-.044.166-.055.24-.065-.006-.096-.006-.03 0-.089.007-.075-.075-.264-.24-.189-.166-.213-.166-.006 0-.272.25-.008.01-.002.025.038.088.369.487-.017.088-.013.184-.434.053-.41.11l.215.494q.025.057.505.11.085.102.173.183.016.4.055.488.006.014.023.024l.138.07.233.121q.111.057.117.057.025 0 .07-.165.045-.164.056-.238.065.007.095.007.031 0 .09-.007.265.25.454.396l.022.007q.012 0 .273-.248.008-.01.002-.024-.038-.088-.369-.488.017-.08.013-.183.434-.053.41-.11z" fill="#f4b934" stroke-width=".265"></path></svg></g></g><g opacity="1"><g id="dfe63b53-3802-4bfa-bcda-c7edde6f2bd8" transform="translate(0 0)"><svg x="-441" y="641" height="93.28" width="81" viewBox="0 0 21.431 24.68"><path d="M.268 5.102l12.537 7.238 5.224-.603 3.134-9.048L16.984.276 1.313 2.086z" fill="#ececed" fill-rule="evenodd" stroke-width=".268"></path><path d="M.268 5.102v12.064l12.537 7.238V12.34z" fill="#d2d2d4" fill-rule="evenodd" stroke-width=".268"></path><path d="M12.805 12.34l5.224-.603v12.064l-5.224.603z" fill="#d2d2d4" fill-rule="evenodd" stroke-width=".268"></path><path d="M18.029 11.737l3.134-9.048v12.064l-3.134 9.048z" fill="#b8b8bb" fill-rule="evenodd" stroke-width=".268"></path><path d="M.268 5.102l12.537 7.238 5.224-.603 3.134-9.048M18.029 11.737v12.064M12.805 12.34v12.064" fill="none" fill-rule="evenodd" stroke="#83838a" stroke-width=".265"></path><path d="M.268 17.166l12.537 7.238 5.224-.603 3.134-9.048V2.689L16.984.276 1.313 2.086.268 5.102z" fill="none" fill-rule="evenodd" stroke="#000000" stroke-width=".529"></path><path d="M16.852 3.319c-.637-.01-1.269-.156-1.755-.437-.486-.28-.738-.645-.756-1.013l-3.498.035c.11.43-.121.884-.694 1.215-.364.21-.812.34-1.282.391-.625.068-1.225.242-1.709.521-1.273.735-1.277 1.926-.013 2.664.733.423 1.145.956 1.247 1.509.957.059 1.88.296 2.613.72 1.279.73 3.34.727 4.614-.008.483-.28.784-.626.902-.987.089-.271.315-.53.678-.74.573-.33 1.36-.464 2.104-.4l.061-2.02c-.637-.01-1.269-.156-1.755-.437-.486-.28-.739-.645-.757-1.013z" fill="none" fill-rule="evenodd" stroke-linecap="round" stroke-width="0"></path><path d="M17.277 4.302c.467.27 1.056.427 1.664.471l-.05 1.693c-.73-.014-1.466.14-2.023.462-.404.234-.655.522-.754.824-.107.33-.381.647-.823.902-1.16.671-3.041.674-4.207.007-.722-.418-1.619-.665-2.555-.75-.144-.54-.573-1.06-1.296-1.477C6.081 5.759 6.086 4.672 7.247 4c.441-.256.989-.414 1.559-.476.522-.057 1.02-.203 1.424-.436.557-.322.823-.749.8-1.17l2.926-.03c.076.352.348.693.815.963.473.274 1.071.432 1.688.473.072.357.345.703.818.976z" fill="#4286c5" fill-rule="evenodd" stroke-width=".268"></path><g fill="#ffffff" font-family="Interstate" font-size="5.176" stroke-width=".268" style="line-height: 0%;"><path d="M11.246 3.567l1.863 1.078-.399.231-1.429-.826-.86.497q.139.04.259.09.122.049.225.108.588.34.609.725.021.385-.529.703-.566.327-1.233.305-.665-.023-1.307-.394-.22-.127-.414-.282-.19-.154-.36-.339l.478-.276q.096.19.265.352.17.163.421.309.407.235.858.249.45.013.818-.199.366-.212.343-.473-.024-.26-.43-.496-.19-.11-.423-.196-.23-.084-.517-.147zM14.127 7.104q.268.239.228.482-.038.245-.376.44-.52.3-1.16.259-.642-.042-1.3-.423-.221-.128-.412-.29-.19-.158-.352-.353l.458-.265q.082.18.259.35.176.17.432.319.446.258.855.29.412.035.748-.16.31-.179.265-.406-.04-.227-.428-.451l-.408-.237.39-.225.427.247q.35.202.675.23.326.026.59-.127.27-.156.22-.35-.044-.195-.401-.401-.195-.113-.461-.218-.266-.104-.623-.208l.423-.244q.346.112.618.227.275.115.484.236.54.313.609.638.07.323-.348.565-.291.168-.66.189-.367.019-.752-.114z" style="line-height: 1.25;"></path></g></svg></g></g><g opacity="1"><g id="2685515d-0fdf-4c31-b26d-7cf5ad8c321d" transform="translate(0 0)"><svg x="-584" y="719" height="95.068" width="63" viewBox="0 0 16.669 25.153"><path d="M16.668 22.903q0 1.64-.864 2.091-.865.451-2.297-.376L3.161 18.645q-1.433-.827-2.297-2.276Q.001 14.921 0 13.28q0-.723.042-1.39.042-.666.166-1.394.124-.727.313-1.302.19-.575.51-1.039.319-.464.733-.683.414-.22 1.012-.147.598.073 1.32.49.107.06.497.58.391.52.882 1.165.491.646 1.279 1.394.788.75 1.58 1.207.793.458 1.58.618.788.161 1.28.083.49-.079.881-.147.39-.069.497-.007.722.416 1.32 1.035.598.619 1.013 1.315.414.697.734 1.531t.509 1.627q.19.793.313 1.664.124.872.166 1.586.042.713.042 1.438zM12.88 8.51q0 2.173-1.332 2.942-1.332.769-3.214-.318-1.882-1.086-3.214-3.393Q3.79 5.434 3.79 3.26q0-2.173 1.331-2.942 1.332-.77 3.214.317t3.214 3.394q1.332 2.306 1.332 4.48z" fill="#000" stroke="#000000" stroke-width=".268"></path></svg></g></g></g><g pointer-events="auto"></g><g pointer-events="auto"></g><g pointer-events="auto"><g opacity="1"><g id="7ba5b728-d887-4091-85ec-94b7e5600f82" transform="translate(0 0)"><svg x="-176" y="398" overflow="visible"><text stroke="#ffffff" stroke-width="0" font-family="Open Sans" y="36.5" font-size="25pt" fill="#f5b720" font-weight="bold" transform="matrix(0.707 0.409 -0.707 0.409 0 0)" xml:space="preserve"><tspan x="8" dy="0">S3</tspan></text><text font-family="Open Sans" y="36.5" font-size="25pt" fill="#f5b720" font-weight="bold" transform="matrix(0.707 0.409 -0.707 0.409 0 0)" xml:space="preserve"><tspan x="8" dy="0">S3</tspan></text></svg></g></g><g opacity="1"><g id="d4582361-d412-44fe-9044-b3f0d091c444" transform="translate(0 0)"><svg x="-560" y="398" overflow="visible"><text stroke="#ffffff" stroke-width="4" font-family="Open Sans" y="36.5" font-size="25pt" fill="#f5b720" font-weight="bold" transform="matrix(0.707 0.409 -0.707 0.409 0 0)" xml:space="preserve"><tspan x="8" dy="0">CloudFront</tspan></text><text font-family="Open Sans" y="36.5" font-size="25pt" fill="#f5b720" font-weight="bold" transform="matrix(0.707 0.409 -0.707 0.409 0 0)" xml:space="preserve"><tspan x="8" dy="0">CloudFront</tspan></text></svg></g></g><g opacity="1"><g id="a1dbd1bd-e94e-4df8-bff8-0303e8dc421d" transform="translate(0 0)"><svg x="-96" y="703" overflow="visible"><text stroke="#ffffff" stroke-width="4" font-family="Open Sans" y="36.5" font-size="25pt" fill="#f5b720" font-weight="bold" transform="matrix(0.707 0.409 -0.707 0.409 0 0)" xml:space="preserve"><tspan x="8" dy="0">API Gateway</tspan></text><text font-family="Open Sans" y="36.5" font-size="25pt" fill="#f5b720" font-weight="bold" transform="matrix(0.707 0.409 -0.707 0.409 0 0)" xml:space="preserve"><tspan x="8" dy="0">API Gateway</tspan></text></svg></g></g><g opacity="1"><g id="e400671e-2290-4d80-8b9c-b3ffb899f3ad" transform="translate(0 0)"><svg x="-336" y="731" overflow="visible"><text stroke="#ffffff" stroke-width="4" font-family="Open Sans" y="36.5" font-size="25pt" fill="#f5b720" font-weight="bold" transform="matrix(0.707 0.409 -0.707 0.409 0 0)" xml:space="preserve"><tspan x="8" dy="0">Route53</tspan></text><text font-family="Open Sans" y="36.5" font-size="25pt" fill="#f5b720" font-weight="bold" transform="matrix(0.707 0.409 -0.707 0.409 0 0)" xml:space="preserve"><tspan x="8" dy="0">Route53</tspan></text></svg></g></g><g opacity="1"><g id="997eed5b-ab5a-46d4-8b43-4c6ea45d3785" transform="translate(0 0)"><svg x="48" y="583" overflow="visible"><text stroke="#ffffff" stroke-width="4" font-family="Open Sans" y="36.5" font-size="25pt" fill="#f5b720" font-weight="bold" transform="matrix(0.707 0.409 -0.707 0.409 0 0)" xml:space="preserve"><tspan x="8" dy="0">Lambda</tspan></text><text font-family="Open Sans" y="36.5" font-size="25pt" fill="#f5b720" font-weight="bold" transform="matrix(0.707 0.409 -0.707 0.409 0 0)" xml:space="preserve"><tspan x="8" dy="0">Lambda</tspan></text></svg></g></g><g opacity="1"><g id="fe3c161f-5b5b-4d91-8d49-bbe3d2e9d444" transform="translate(0 0)"><svg x="176" y="509" overflow="visible"><text stroke="#ffffff" stroke-width="4" font-family="Open Sans" y="36.5" font-size="25pt" fill="#f5b720" font-weight="bold" transform="matrix(0.707 0.409 -0.707 0.409 0 0)" xml:space="preserve"><tspan x="8" dy="0">Meeting API</tspan></text><text font-family="Open Sans" y="36.5" font-size="25pt" fill="#f5b720" font-weight="bold" transform="matrix(0.707 0.409 -0.707 0.409 0 0)" xml:space="preserve"><tspan x="8" dy="0">Meeting API</tspan></text></svg></g></g></g><g></g></g></svg>